<svg id="Layer_1" data-name="Layer 1" xmlns="http://www.w3.org/2000/svg" viewBox="0 0 418.52 49.79"><defs><style>.cls-1{fill:#2B2B2B;}</style></defs><path class="cls-1" d="M214.34,5.34a4.12,4.12,0,0,1-2,3.48,4.15,4.15,0,0,1,2,3.49A4.64,4.64,0,0,1,209.7,17h-7V.7h7A4.45,4.45,0,0,1,213,2.06,4.46,4.46,0,0,1,214.34,5.34ZM205.06,3V7.66h4.64A2.22,2.22,0,0,0,211.34,7a2.31,2.31,0,0,0,0-3.27A2.23,2.23,0,0,0,209.7,3Zm0,7v4.64h4.64A2.34,2.34,0,0,0,212,12.31a2.26,2.26,0,0,0-.68-1.64A2.22,2.22,0,0,0,209.7,10Z"/><path class="cls-1" d="M234.53,17h-11.6V.7h2.32V14.63h9.28Z"/><path class="cls-1" d="M245.44,12.31V17h-2.32V9.41L247.48.7h2.9l4.34,8.7V17H252.4V12.31ZM248.93,3l-3.48,7h6.94Z"/><path class="cls-1" d="M274.91,12.31A4.63,4.63,0,0,1,270.27,17H268a4.64,4.64,0,0,1-4.64-4.64v-7a4.46,4.46,0,0,1,1.36-3.28A4.45,4.45,0,0,1,268,.7h2.32a4.48,4.48,0,0,1,3.29,1.37,4.5,4.5,0,0,1,1.35,3.27h-2.32a2.24,2.24,0,0,0-.68-1.63A2.23,2.23,0,0,0,270.27,3H268a2.34,2.34,0,0,0-2.32,2.32v7A2.34,2.34,0,0,0,268,14.63h2.32a2.34,2.34,0,0,0,2.32-2.32Z"/><path class="cls-1" d="M295.1,17h-2.32l-7-7v7H283.5V.7h2.32v7l7-7h2.32v.86l-7.27,7.26,7.26,7.26Z"/><path class="cls-1" d="M317.59,21.59H303.67V19.27h13.92Z"/><path class="cls-1" d="M418.52,21.59H404.6V19.27h13.92Z"/><path class="cls-1" d="M335.49,17h-2.33l-7-7v7h-2.32V.7h2.32v7l7-7h2.33v.86l-7.27,7.26,7.26,7.26Z"/><path class="cls-1" d="M355.68,17H344.07V14.63h4.64V3h-4.64V.7h11.61V3H351V14.63h4.65Z"/><path class="cls-1" d="M375.87,12.31A4.64,4.64,0,0,1,371.23,17h-7V.7h7a4.47,4.47,0,0,1,3.28,1.37,4.51,4.51,0,0,1,1.36,3.27Zm-2.32,0v-7a2.21,2.21,0,0,0-.69-1.63A2.21,2.21,0,0,0,371.23,3h-4.65V14.63h4.65a2.36,2.36,0,0,0,2.32-2.32Z"/><path class="cls-1" d="M396.06,12.31A4.64,4.64,0,0,1,391.42,17h-2.33a4.64,4.64,0,0,1-4.64-4.64h2.32a2.36,2.36,0,0,0,2.32,2.32h2.33a2.36,2.36,0,0,0,2.32-2.32,2.23,2.23,0,0,0-.69-1.64,2.2,2.2,0,0,0-1.63-.68h-2.33a4.5,4.5,0,0,1-3.28-1.36,4.51,4.51,0,0,1-1.36-3.29,4.5,4.5,0,0,1,1.36-3.28A4.46,4.46,0,0,1,389.09.7h2.33a4.47,4.47,0,0,1,3.28,1.37,4.47,4.47,0,0,1,1.36,3.27h-2.32a2.21,2.21,0,0,0-.69-1.63A2.21,2.21,0,0,0,391.42,3h-2.33a2.21,2.21,0,0,0-1.63.69,2.21,2.21,0,0,0-.69,1.63A2.23,2.23,0,0,0,387.46,7a2.2,2.2,0,0,0,1.63.68h2.33A4.48,4.48,0,0,1,394.69,9,4.5,4.5,0,0,1,396.06,12.31Z"/><path class="cls-1" d="M214.34,33.55a4.66,4.66,0,0,1-4.64,4.64h-4.64v7h-2.32V28.91h7a4.63,4.63,0,0,1,4.64,4.64Zm-2.32,0a2.32,2.32,0,0,0-2.32-2.32h-4.64v4.64h4.64A2.34,2.34,0,0,0,212,33.55Z"/><path class="cls-1" d="M232.21,45.15V40.51a2.32,2.32,0,0,0-2.32-2.32h-4.64v7h-2.32V28.91h7a4.61,4.61,0,0,1,4.64,4.64,4.13,4.13,0,0,1-2,3.48,4.13,4.13,0,0,1,2,3.48v4.64Zm-7-9.28h4.64a2.34,2.34,0,0,0,2.32-2.32,2.32,2.32,0,0,0-2.32-2.32h-4.64Z"/><path class="cls-1" d="M254.72,45.15h-11.6V28.91h11.6v2.32h-9.28v4.64h7v2.32h-7v4.64h9.28Z"/><path class="cls-1" d="M274.91,40.51a4.63,4.63,0,0,1-4.64,4.64h-7V28.91h7a4.44,4.44,0,0,1,3.29,1.37,4.49,4.49,0,0,1,1.35,3.27Zm-2.32,0v-7a2.32,2.32,0,0,0-2.32-2.32h-4.64v11.6h4.64a2.32,2.32,0,0,0,2.32-2.32Z"/><path class="cls-1" d="M295.1,45.15H283.5V42.83h4.64V31.23H283.5V28.91h11.6v2.32h-4.64v11.6h4.64Z"/><path class="cls-1" d="M315.3,40.51a4.64,4.64,0,0,1-4.65,4.64h-2.32a4.64,4.64,0,0,1-4.64-4.64v-7a4.63,4.63,0,0,1,4.64-4.64h2.32a4.44,4.44,0,0,1,3.29,1.37,4.5,4.5,0,0,1,1.36,3.27H313a2.22,2.22,0,0,0-.68-1.64,2.26,2.26,0,0,0-1.64-.68h-2.32A2.34,2.34,0,0,0,306,33.55v7a2.34,2.34,0,0,0,2.32,2.32h2.32a2.26,2.26,0,0,0,1.64-.68,2.24,2.24,0,0,0,.68-1.64Z"/><path class="cls-1" d="M335.49,31.23h-4.65V45.15h-2.32V31.23h-4.64V28.91h11.61Z"/><polygon class="cls-1" points="169.93 9.2 170.92 9.2 163.33 0 155.96 0 154.59 4.79 166.71 20.9 159.12 26.9 158.13 26.9 146.84 35.38 145.85 35.38 139.04 40.49 137.88 44.57 148.77 44.57 173.4 26.9 175.96 17.69 176.94 17.69 169.93 9.2"/><polygon class="cls-1" points="19.19 35.38 12.75 26.9 13.74 26.9 10.48 22.62 36.33 4.83 37.65 0 28.95 0 16.28 9.2 15.29 9.2 3.6 17.69 2.61 17.69 0 26.88 0.01 26.9 12.86 44.57 20.95 44.57 22.07 40.47 18.2 35.38 19.19 35.38"/><path class="cls-1" d="M147.58,17.69h1.65a16.46,16.46,0,0,0,1.62-3.79,13.4,13.4,0,0,0,.55-4.71h1.65a9.87,9.87,0,0,0-1.85-5c-2-2.75-4.88-4.14-8.69-4.14H123.58l-2.64,9.19h-1.65l-2.44,8.5H115.2l-2.64,9.21h-1.65l-2.43,8.47h-1.65l-2.64,9.2h9.33l2.64-9.2h1.65l2.43-8.47h1.65v0h10.55a16.54,16.54,0,0,0,10.35-3.83A19,19,0,0,0,147.58,17.69Zm-13.44,0h-8l2.44-8.5h10.55a2.52,2.52,0,0,1,2.31,1.05,2.93,2.93,0,0,1,.31,2.75,6.43,6.43,0,0,1-2.36,3.31,5.86,5.86,0,0,1-3.64,1.39Z"/><polygon class="cls-1" points="98.12 35.37 92.08 26.9 93.73 26.9 90.67 22.62 97.02 17.68 98.67 17.68 109.59 9.19 111.24 9.19 116.89 4.8 118.26 0 109.61 0 97.78 9.19 96.13 9.19 88.74 14.93 90.39 9.19 92.04 9.19 94.68 0 85.35 0 82.71 9.19 81.06 9.19 78.63 17.68 76.97 17.68 74.33 26.9 72.69 26.9 70.25 35.37 68.6 35.37 65.97 44.57 75.3 44.57 77.93 35.37 79.58 35.37 81.42 28.98 85.98 35.37 84.33 35.37 90.89 44.57 98.89 44.57 100.05 40.39 96.47 35.37 98.12 35.37"/><path class="cls-1" d="M64.06,26.9h1.65a9.2,9.2,0,0,0-1.87-4.3,17.92,17.92,0,0,0,4.85-4.91h1.65a14.4,14.4,0,0,0,1.73-3.79,13.62,13.62,0,0,0,.54-4.71h1.65a9.94,9.94,0,0,0-1.84-5C70.46,1.39,67.53,0,63.72,0H44.79L42.15,9.19H40.5l-2.43,8.5H36.42L33.78,26.9H32.13L29.7,35.37H28.05l-2.64,9.2H45.29a16.65,16.65,0,0,0,10.34-3.8,18.5,18.5,0,0,0,4.8-5.4h1.65a17,17,0,0,0,1.62-3.79A11,11,0,0,0,64.06,26.9ZM49.83,9.19H60.38a2.52,2.52,0,0,1,2.31,1.05A2.93,2.93,0,0,1,63,13a6.43,6.43,0,0,1-2.36,3.31A5.86,5.86,0,0,1,57,17.69H47.4ZM47,35.37H39l2.43-8.47h1.65v0H52l.33,0a2.39,2.39,0,0,1,2,1,2.92,2.92,0,0,1,.31,2.74A6.39,6.39,0,0,1,52.27,34a5.84,5.84,0,0,1-3.64,1.39Z"/><rect class="cls-1" x="344.07" y="24.27" width="13.89" height="25.52" rx="1.03"/></svg>