<?xml version="1.0" encoding="UTF-8"?>
<svg id="Layer_1" data-name="Layer 1" xmlns="http://www.w3.org/2000/svg" viewBox="0 0 252.88 123.87">
  <defs>
    <style>
      .cls-1 {
        fill: #1d48c0;
      }
    </style>
  </defs>
  <g>
    <path class="cls-1" d="M145.14,34.64l-1.88,1.46c-1.04-1.36-2.28-2.4-3.74-3.1-1.46-.7-3.05-1.06-4.79-1.06-1.9,0-3.66,.46-5.29,1.38-1.62,.92-2.88,2.16-3.77,3.72-.89,1.55-1.34,3.3-1.34,5.25,0,2.94,1,5.39,2.99,7.35,2,1.97,4.51,2.95,7.55,2.95,3.34,0,6.13-1.32,8.38-3.96l1.88,1.44c-1.19,1.53-2.67,2.71-4.45,3.54-1.78,.84-3.76,1.25-5.96,1.25-4.17,0-7.47-1.4-9.87-4.21-2.02-2.37-3.03-5.23-3.03-8.58,0-3.53,1.23-6.49,3.67-8.9,2.45-2.41,5.52-3.61,9.2-3.61,2.23,0,4.24,.44,6.03,1.33,1.79,.89,3.26,2.14,4.41,3.74Z"/>
    <path class="cls-1" d="M148.39,29.56h2.27v10.07c.92-1.22,1.93-2.14,3.03-2.74,1.1-.61,2.3-.91,3.58-.91s2.49,.34,3.51,1.02c1.02,.68,1.77,1.59,2.26,2.73,.49,1.14,.73,2.93,.73,5.36v9.17h-2.27v-8.5c0-2.05-.08-3.42-.24-4.11-.28-1.18-.79-2.07-1.53-2.66-.74-.59-1.71-.89-2.91-.89-1.37,0-2.6,.46-3.69,1.37-1.09,.92-1.8,2.05-2.15,3.41-.22,.87-.33,2.49-.33,4.85v6.53h-2.27V29.56Z"/>
    <path class="cls-1" d="M168.93,29.1c.52,0,.96,.19,1.32,.56,.37,.37,.55,.82,.55,1.34s-.18,.96-.55,1.33c-.37,.37-.81,.56-1.32,.56s-.94-.19-1.31-.56c-.36-.37-.55-.81-.55-1.33s.18-.97,.55-1.34c.37-.37,.8-.56,1.31-.56Zm-1.13,7.34h2.27v17.82h-2.27v-17.82Z"/>
    <path class="cls-1" d="M190.76,40.14l-1.8,1.13c-1.55-2.09-3.68-3.13-6.37-3.13-2.15,0-3.93,.7-5.35,2.09-1.42,1.4-2.13,3.09-2.13,5.09,0,1.3,.33,2.52,.98,3.66,.65,1.15,1.55,2.03,2.69,2.67,1.14,.63,2.42,.95,3.83,.95,2.59,0,4.71-1.04,6.35-3.13l1.8,1.2c-.84,1.28-1.98,2.28-3.4,2.98-1.42,.71-3.04,1.06-4.86,1.06-2.79,0-5.1-.89-6.94-2.68-1.84-1.79-2.76-3.97-2.76-6.53,0-1.72,.43-3.33,1.29-4.81,.86-1.48,2.04-2.63,3.54-3.46,1.5-.83,3.18-1.24,5.04-1.24,1.17,0,2.29,.18,3.38,.54,1.09,.36,2.01,.83,2.77,1.41,.76,.58,1.4,1.32,1.93,2.21Z"/>
    <path class="cls-1" d="M211.54,36.44v17.82h-2.24v-3.06c-.95,1.17-2.02,2.05-3.2,2.64-1.18,.59-2.48,.88-3.88,.88-2.5,0-4.63-.91-6.4-2.74-1.77-1.83-2.65-4.05-2.65-6.67s.89-4.76,2.67-6.58c1.78-1.82,3.93-2.73,6.44-2.73,1.45,0,2.76,.31,3.93,.93,1.17,.62,2.2,1.56,3.09,2.8v-3.27h2.24Zm-9.07,1.75c-1.26,0-2.43,.31-3.5,.94-1.07,.63-1.92,1.51-2.55,2.64-.63,1.13-.95,2.33-.95,3.6s.32,2.45,.95,3.6c.64,1.14,1.49,2.04,2.57,2.67,1.07,.64,2.23,.96,3.46,.96s2.42-.32,3.53-.95c1.11-.63,1.97-1.49,2.56-2.57,.6-1.08,.9-2.29,.9-3.65,0-2.06-.67-3.78-2.02-5.17-1.34-1.38-3-2.08-4.96-2.08Z"/>
    <path class="cls-1" d="M230.03,36.44h2.27v14.2c0,2.5-.22,4.33-.65,5.49-.6,1.64-1.63,2.9-3.1,3.78-1.47,.88-3.24,1.33-5.3,1.33-1.51,0-2.87-.22-4.08-.65-1.21-.43-2.19-1.01-2.94-1.74-.76-.73-1.46-1.79-2.09-3.2h2.46c.67,1.18,1.54,2.05,2.6,2.62,1.06,.57,2.38,.85,3.95,.85s2.85-.29,3.92-.87c1.07-.58,1.83-1.31,2.28-2.19,.45-.88,.68-2.3,.68-4.27v-.92c-.86,1.09-1.9,1.93-3.13,2.51-1.23,.58-2.54,.88-3.93,.88-1.62,0-3.15-.41-4.58-1.22-1.43-.81-2.53-1.91-3.31-3.28-.78-1.38-1.17-2.89-1.17-4.54s.41-3.18,1.22-4.61c.81-1.42,1.93-2.55,3.37-3.38,1.43-.83,2.95-1.24,4.54-1.24,1.32,0,2.55,.28,3.69,.83,1.14,.55,2.24,1.46,3.3,2.73v-3.09Zm-6.7,1.75c-1.29,0-2.48,.31-3.58,.94-1.1,.63-1.97,1.5-2.59,2.6-.63,1.11-.94,2.31-.94,3.6,0,1.95,.65,3.57,1.95,4.85,1.3,1.28,2.98,1.92,5.04,1.92s3.77-.63,5.04-1.9c1.27-1.27,1.9-2.93,1.9-5,0-1.34-.29-2.54-.87-3.59-.58-1.05-1.41-1.89-2.48-2.5-1.07-.61-2.22-.92-3.45-.92Z"/>
    <path class="cls-1" d="M243.69,35.98c2.72,0,4.97,.99,6.76,2.98,1.62,1.81,2.44,3.96,2.44,6.44s-.86,4.67-2.57,6.52c-1.72,1.86-3.93,2.79-6.62,2.79s-4.92-.93-6.64-2.79c-1.72-1.86-2.57-4.04-2.57-6.52s.81-4.61,2.43-6.42c1.79-2,4.05-3,6.77-3Zm0,2.24c-1.89,0-3.51,.7-4.87,2.11-1.36,1.41-2.03,3.11-2.03,5.11,0,1.29,.31,2.49,.93,3.6,.62,1.11,1.46,1.97,2.51,2.58,1.05,.61,2.21,.91,3.47,.91s2.41-.3,3.46-.91c1.05-.6,1.89-1.47,2.51-2.58,.62-1.11,.93-2.31,.93-3.6,0-2-.68-3.7-2.04-5.11-1.36-1.41-2.98-2.11-4.86-2.11Z"/>
    <path class="cls-1" d="M122.91,61.26h4.75c2.73,0,4.56,.12,5.51,.36,1.36,.34,2.47,1.04,3.34,2.09,.86,1.05,1.3,2.38,1.3,3.97s-.42,2.93-1.27,3.97c-.84,1.04-2.01,1.74-3.49,2.1-1.08,.26-3.1,.39-6.06,.39h-1.7v11.2h-2.38v-24.09Zm2.38,2.36v8.17l4.04,.05c1.63,0,2.83-.15,3.58-.45,.76-.3,1.35-.78,1.79-1.45,.43-.67,.65-1.42,.65-2.25s-.22-1.54-.65-2.21c-.43-.67-1-1.15-1.71-1.43-.71-.28-1.87-.42-3.48-.42h-4.22Z"/>
    <path class="cls-1" d="M139.65,67.53h2.27v8.32c0,2.03,.11,3.43,.32,4.19,.33,1.09,.94,1.95,1.86,2.59,.91,.63,2.01,.95,3.27,.95s2.34-.31,3.22-.93c.88-.62,1.49-1.43,1.83-2.43,.23-.69,.34-2.15,.34-4.37v-8.32h2.32v8.74c0,2.45-.28,4.31-.85,5.55-.57,1.25-1.42,2.22-2.56,2.92-1.14,.7-2.57,1.06-4.29,1.06s-3.15-.35-4.3-1.06c-1.15-.7-2.01-1.69-2.58-2.95-.57-1.26-.85-3.16-.85-5.69v-8.58Z"/>
    <path class="cls-1" d="M159.12,85.35v-24.69h2.27v9.94c.95-1.18,2.01-2.06,3.19-2.64,1.18-.59,2.47-.88,3.87-.88,2.5,0,4.63,.92,6.39,2.74,1.77,1.83,2.65,4.05,2.65,6.66s-.89,4.78-2.67,6.6c-1.78,1.82-3.92,2.74-6.43,2.74-1.44,0-2.74-.31-3.9-.93-1.17-.62-2.2-1.56-3.09-2.8v3.28h-2.27Zm9.08-1.75c1.26,0,2.43-.31,3.49-.94,1.07-.63,1.92-1.51,2.55-2.64,.63-1.14,.95-2.34,.95-3.6s-.32-2.47-.95-3.62c-.64-1.15-1.49-2.04-2.56-2.68-1.07-.64-2.22-.96-3.44-.96s-2.42,.32-3.54,.96c-1.12,.64-1.97,1.5-2.57,2.58-.6,1.08-.9,2.3-.9,3.65,0,2.06,.67,3.79,2.01,5.17,1.34,1.39,3,2.08,4.96,2.08Z"/>
    <rect class="cls-1" x="180.79" y="60.66" width="2.27" height="24.69"/>
    <path class="cls-1" d="M188.73,60.2c.52,0,.96,.19,1.33,.56,.37,.37,.55,.82,.55,1.34s-.18,.96-.55,1.33c-.37,.37-.81,.56-1.33,.56s-.94-.19-1.31-.56c-.37-.37-.55-.81-.55-1.33s.18-.97,.55-1.34c.37-.37,.8-.56,1.31-.56Zm-1.13,7.34h2.27v17.81h-2.27v-17.81Z"/>
    <path class="cls-1" d="M211.22,71.23l-1.8,1.13c-1.55-2.08-3.67-3.13-6.36-3.13-2.15,0-3.93,.7-5.35,2.09-1.42,1.4-2.13,3.09-2.13,5.08,0,1.3,.33,2.52,.98,3.67,.65,1.14,1.55,2.03,2.69,2.66,1.14,.63,2.42,.95,3.83,.95,2.59,0,4.71-1.04,6.35-3.13l1.8,1.2c-.84,1.28-1.98,2.28-3.4,2.98-1.42,.71-3.04,1.06-4.86,1.06-2.79,0-5.1-.9-6.94-2.69-1.84-1.79-2.76-3.97-2.76-6.53,0-1.72,.43-3.33,1.29-4.81,.86-1.48,2.04-2.63,3.54-3.46,1.5-.83,3.18-1.25,5.04-1.25,1.17,0,2.29,.18,3.38,.54,1.09,.36,2.01,.83,2.77,1.41,.76,.58,1.4,1.32,1.93,2.21Z"/>
    <path class="cls-1" d="M120.46,111.96l2.03-1.23c1.43,2.65,3.07,3.98,4.94,3.98,.8,0,1.55-.19,2.25-.57,.7-.38,1.24-.88,1.61-1.51,.37-.63,.55-1.3,.55-2.01,0-.81-.27-1.6-.81-2.38-.75-1.07-2.11-2.36-4.09-3.86-1.99-1.52-3.23-2.61-3.71-3.29-.84-1.14-1.27-2.36-1.27-3.68,0-1.05,.25-2,.75-2.87,.5-.86,1.2-1.54,2.1-2.04,.9-.5,1.88-.75,2.94-.75,1.12,0,2.17,.28,3.15,.84,.98,.56,2.01,1.6,3.11,3.1l-1.95,1.49c-.9-1.2-1.66-1.99-2.29-2.37-.63-.38-1.32-.57-2.07-.57-.96,0-1.75,.3-2.36,.88-.61,.59-.92,1.32-.92,2.18,0,.52,.11,1.03,.33,1.52,.22,.49,.61,1.02,1.18,1.6,.31,.3,1.34,1.11,3.08,2.41,2.07,1.54,3.48,2.91,4.25,4.11,.77,1.2,1.15,2.41,1.15,3.62,0,1.75-.66,3.26-1.97,4.55-1.31,1.29-2.91,1.93-4.79,1.93-1.45,0-2.76-.39-3.94-1.17-1.18-.78-2.27-2.09-3.26-3.92Z"/>
    <path class="cls-1" d="M155.72,102.33l-1.8,1.13c-1.55-2.09-3.68-3.13-6.37-3.13-2.15,0-3.93,.7-5.35,2.09-1.42,1.4-2.13,3.09-2.13,5.09,0,1.3,.33,2.52,.98,3.66,.65,1.14,1.55,2.03,2.69,2.67,1.14,.63,2.41,.95,3.83,.95,2.59,0,4.71-1.04,6.35-3.13l1.8,1.2c-.85,1.28-1.98,2.28-3.4,2.98-1.42,.71-3.04,1.06-4.86,1.06-2.79,0-5.1-.89-6.94-2.68-1.84-1.79-2.76-3.97-2.76-6.53,0-1.72,.43-3.33,1.29-4.81,.86-1.48,2.04-2.63,3.54-3.46,1.5-.83,3.18-1.24,5.04-1.24,1.17,0,2.3,.18,3.38,.54,1.09,.36,2.01,.83,2.77,1.41,.76,.58,1.4,1.32,1.93,2.21Z"/>
    <path class="cls-1" d="M159.12,91.75h2.27v10.07c.92-1.22,1.93-2.14,3.03-2.74,1.1-.61,2.3-.91,3.58-.91s2.49,.34,3.51,1.01c1.02,.68,1.77,1.59,2.26,2.73,.49,1.14,.73,2.93,.73,5.36v9.17h-2.27v-8.5c0-2.05-.08-3.42-.24-4.11-.28-1.18-.79-2.07-1.53-2.66-.74-.59-1.71-.89-2.91-.89-1.37,0-2.6,.46-3.69,1.38-1.09,.92-1.8,2.05-2.15,3.41-.22,.87-.33,2.49-.33,4.85v6.53h-2.27v-24.69Z"/>
    <path class="cls-1" d="M186.56,98.17c2.72,0,4.97,.99,6.76,2.98,1.62,1.81,2.44,3.96,2.44,6.43s-.86,4.66-2.57,6.53c-1.72,1.86-3.93,2.79-6.62,2.79s-4.92-.93-6.64-2.79c-1.72-1.86-2.57-4.04-2.57-6.53s.81-4.61,2.44-6.42c1.79-2,4.05-3,6.77-3Zm0,2.24c-1.89,0-3.51,.71-4.87,2.11-1.36,1.41-2.03,3.11-2.03,5.11,0,1.29,.31,2.49,.93,3.6,.62,1.11,1.45,1.97,2.51,2.58,1.05,.61,2.21,.91,3.47,.91s2.41-.3,3.47-.91c1.05-.61,1.89-1.47,2.51-2.58,.62-1.11,.93-2.31,.93-3.6,0-2-.68-3.7-2.04-5.11-1.36-1.41-2.98-2.11-4.86-2.11Z"/>
    <path class="cls-1" d="M207.15,98.17c2.72,0,4.97,.99,6.76,2.98,1.62,1.81,2.44,3.96,2.44,6.43s-.86,4.66-2.57,6.53c-1.72,1.86-3.92,2.79-6.62,2.79s-4.92-.93-6.64-2.79c-1.72-1.86-2.57-4.04-2.57-6.53s.81-4.61,2.44-6.42c1.79-2,4.04-3,6.77-3Zm0,2.24c-1.89,0-3.51,.71-4.87,2.11-1.36,1.41-2.03,3.11-2.03,5.11,0,1.29,.31,2.49,.93,3.6,.62,1.11,1.45,1.97,2.5,2.58,1.05,.61,2.21,.91,3.47,.91s2.41-.3,3.46-.91c1.05-.61,1.89-1.47,2.51-2.58,.61-1.11,.93-2.31,.93-3.6,0-2-.68-3.7-2.04-5.11-1.36-1.41-2.98-2.11-4.86-2.11Z"/>
    <rect class="cls-1" x="219.04" y="91.75" width="2.27" height="24.69"/>
    <path class="cls-1" d="M234.4,100.58l-1.46,1.52c-1.21-1.19-2.4-1.79-3.56-1.79-.74,0-1.37,.24-1.9,.74-.53,.49-.79,1.07-.79,1.72,0,.58,.21,1.13,.65,1.65,.43,.54,1.34,1.16,2.73,1.88,1.69,.89,2.84,1.74,3.45,2.56,.59,.83,.89,1.76,.89,2.8,0,1.46-.51,2.7-1.53,3.72-1.02,1.01-2.29,1.52-3.81,1.52-1.02,0-1.99-.22-2.92-.67-.93-.45-1.69-1.07-2.3-1.85l1.43-1.64c1.16,1.32,2.39,1.98,3.69,1.98,.91,0,1.69-.3,2.32-.89,.64-.59,.96-1.28,.96-2.08,0-.65-.21-1.24-.63-1.75-.42-.5-1.38-1.13-2.86-1.9-1.59-.83-2.68-1.65-3.25-2.46-.58-.81-.86-1.73-.86-2.77,0-1.35,.46-2.48,1.37-3.37,.92-.9,2.07-1.34,3.47-1.34,1.63,0,3.26,.8,4.9,2.4Z"/>
  </g>
  <g>
    <path class="cls-1" d="M61.08,64.15c-.27-.64-1.13,.08-1.06-.21,.11-.44,1.1-3.81,1.1-3.81l-3.57-1.78s-.61-3.38-1.14-4.41c-.36-.69-.13-1.58-.61-2.46,0,0-.68-.99-1.38-1.12-.34-.06-1.69-.76-1.97-.81-.28-.06-1.13-.44-1.29-.55-.17-.11-.37-.39-.43-.52-.05-.12-.17-.82,.72-.98,.22,.03,.56,.07,1.11,.08,1.64,.05,1.75-.6,1.77-.78,.02-.18-.12-.46-.16-.57-.04-.11,.45-.35,.49-.54,.04-.19-.28-.26-.33-.37-.05-.11,.49-.28,.49-.49s-.52-.49-.49-.76c-.05-.14,.82-.36,.82-.69s-.32-.69-.54-.93c-.22-.24-.53-.8-.55-1.02,0-.22,.28-.56,.32-.93l-.05-.98c-.04-.19-.16-.93-.34-1.31-.21-.43-.86-1.09-2.07-1.59-.83-.35-1.84-.59-2.85-.49-.77,.08-1.49,.32-2.14,.63-.26,.08-.45,.16-.54,.21,.05-1.62-1.51-2.03-1.96-1.52-.65-.91-1.76-.05-1.96,.56-1.15-.41-1.91,.2-1.71,1.17-1.71,.51-1.15,2.23-.45,2.33-.7,2.08,1.36,2.33,1.81,1.82,.15,.36,.65,1.06,1.51,.71l.27,.46c.26,1.13,.84,2.44,2.13,3.01,0,0,.28,1.51,.08,1.75-.08,.09-.36,.19-.69,.29-.58,0-1.26,0-1.26,.27l.04,.18-.04,.46,.03,.34s-.12,.11-.31,.29c-.68,.29-1.61,.86-1.61,1.08,0,.29-1.6,1.91-1.75,2.13-.15,.22-.38,2.99-.76,3.37-.38,.38-3.35,.53-3.35,1.77s-.3,9.92,1.37,10.44c1.67,.51,2.28-.07,2.43,.51,.15,.59,.23,1.57,.38,2.3,.15,.74,2.27-.49,2.23,1.03-.04,1.36-.78,3.77,1.25,5.5,1.72,1.46,1.32,12.03,.86,12.63-.46,.6-.38,1.18-.38,1.85s-1.15,3.6,.6,7.57c-1.67,.22-1.75,1.03-1.98,1.25-.23,.22-1.67,1.1-2.21,1.76-.53,.66-1.9,1.25-1.75,1.91,.15,.66,1.22,2.06,1.67,2.13,.45,.07,1.94-.5,1.67,1.84,.68,.8,2.82,3.16,2.82,3.16,0,0-1.59,1.24-.99,3.09,.18,.56,.09,1.53,.23,1.53h1.6c.28,0,.3-.37,.51-.53,.21-.16,.44-.11,.7,.11,.53,.43,6.85,.43,7.23,.43s2.2-1.09,1.06-1.75c-1.14-.66-1.98-.66-1.98-1.03s-1.6-3.09-1.6-3.09c0,0-.6-2.02-.76-3.96-.13-1.66,.16-3.24,.3-3.61,.31-.81,7.23-9.75,8.14-10.5,.91-.74,.46-4.24,.15-5.91-.3-1.67-2.58-11.93-3.48-13.19-.44-.61-.26-1.47-.43-2.37-.17-.95,.01-1.93,.4-1.78,.76,.29,1.52,.88,1.52,.88,.3-.3,.53-1.76,.76-1.62,.23,.15,1.06,.51,1.45,.44,.18-.03,.83-.44,1.18-1.14,.39-.79,.46-1.89,.5-2.17,.05-.4-.63-.63-.8-1.04Zm-7.96,26.46c-.29,.65-.7,1.43-1.04,2.05-.08,.15-.55,.82-1.06,1.24,.45-1.54,.84-4.51,.84-4.74,0-1.24,.38-4.45,.38-4.45,.54,.97,.62,2.11,.74,2.69,.16,.78,.54,2.28,.13,3.21Z"/>
    <path class="cls-1" d="M112.24,9.54c-1.71-.91-5.79-2.09-6.36-2.32-.14-.71-.08-1.42-.46-1.91-.61-.79-1.02-1.2-1.94-1.43-1.51-.39-2.34,.16-2.52,.43-.77,.21-7.2-3.65-8.3-4.22-1.1-.57-2.25,1.59-2.04,2.11,.21,.52,8.07,3.79,9.92,4.67-.24,1.4,1.03,2.27,1.2,2.51,.06,.09-1.27,.02-1.38,.7-.11,.67-.33,4.42-.39,4.93-.09,.81-.65,3.82-1.38,4.49-.73,.66-1.29,.93-1.29,.93-2.02,2.27-3.33,2.14-4.72,3.34-.94,.81-1.59,.56-2.72,.4-1.13-.16-2.23,1.12-2.94,1.4-.38,.15-.65,.58-.87,.8-.2-.15-.44-.3-.45-.3-.09-.38-.69-.58-.64-1.21,.3-1.58,1.32-1.15,.96-4.08,.46-.28,.48-.4,.5-1.56,.01-.85-.62-.32-.62-.32,.41-1.52-.87-4.64-.87-4.64,0,0,1-.85,1.27-.96l1.11-.6,.09,.13,.02,.02,.02,.02,.11,.19,.09,.36h0s0,0,0,0h0s0,0,0,0c.12,.25,.38,.31,.51,.3h.02c.12,.11,.53,.61,.71,1.49h0c.08,.4,.27,1.9,.44,3.29,.09,.7,.17,1.37,.23,1.88,.03,.25,.06,.46,.08,.62l.03,.19v.06s.04,.09,.04,.09l.31,.19c.19,0,.28-.1,.37-.17l.1-.09h0s.14-.01,.14-.01l.17-.06,.13-.25-.03-.09v-.12c0-1.15-.74-5.04-.98-5.94-.08-.29-.32-.63-.56-.96-.21-.28-.4-.53-.47-.64l.02-.09c0-.2-.1-.35-.2-.45-.11-.1-.2-.18-.37-.2l-.12-.23c.23-.18,.73-.75,.73-.75l-.14-.22-.12-.02-10.92,.65s-8.29,6.43-8.93,6.57v.1l6.79-.67c-.18,1.43,.24,2.17,.84,3.06-.28,.02-.86,.16-.32,1.09,.55,.94,.83,1.11,1.22,.7,.24,1.16,2.41,2.75,2.55,2.96,.31,.45,.16,1.1-.14,1.74l-.3,.47c-.87,.03-2.43,.26-3.85,1.37-7.42-4.36-16.04-6.88-25.25-6.88-27.75,0-50.25,22.72-50.25,50.74,0,9.82,2.77,18.98,7.55,26.75-.56,.63-1.16,1.24-1.87,1.73-.42,.3-.83,.7-1.07,1.2-.25,.52-.55,.88-1.16,1.07-.99,.31-1.92,.8-2.89,1.19-.69,.27-.9,.62-.58,1.28,.49,1.02,.86,2.14,1.94,2.76,.26,.15,.36,.47,.48,.76,.14,.34-.08,.66,.08,.94,.74,1.34,1.62,2.54,2.95,3.36,.76,.47,.97,.44,1.4-.3l.24-.32c.81-1.29,.75-1.65-.42-2.68l-.07-.12c.34-.12,.55-.36,.72-.66,.26-.47,1.54-1.31,1.69-1.42,.33-.24,.71-.4,1.05-.61,.74-.44,1.23-1.05,1.49-1.88,.06-.17,.12-.34,.2-.5,9.22,11.11,23.06,18.18,38.53,18.18,14,0,26.66-5.79,35.78-15.12,.34,1.9,1.11,2.53,1.86,2.41,.81-.13,1.02,.25,1.02,.25,2.01,2.63,3.59,2.61,3.59,2.61,.76,.14,2.97-.05,3.59-1.69,.61-1.64-3.62-4.48-3.98-5.08-.35-.6-.24-1.17-.07-1.76,.42-.16,1.32,.5,2.38,0-.22-2.15-.34-4.68-.4-7.44,4.12-7.36,6.49-15.86,6.49-24.93,0-6.3-1.15-12.33-3.23-17.9,.24-.11,.48-.21,.77-.25,1.02-.16,.89-1.06,1.62-1.02,.33,.02,1.65,1.09,1.83,1.35,.22,.33,.81,.65,1.52,.09,.43-.34,.98-.95,1.71-2,1.78-2.56,.4-6.48-.56-8.42-.96-1.94-.49-8.05-.21-9.83,.28-1.78-.7-6.04-.91-6.82-.21-.78,1.35-3.74,1.56-4.45,.21-.71,.8-2.98,.24-5.16-.56-2.18,1.36-3.17,.94-4.36-.8-1.49-.99-3.59-.99-3.89,.12,.05,.56-.36,.75-.64,.19-.28,4.65,1.78,6.08,2.27,1.43,.5,1.15-1.02,1.22-1.87,.02-.18-.27-.42-.75-.67ZM50.41,121.33c-13.19,0-25.11-5.39-33.75-14.12-1.05-1.06-2.05-2.18-3-3.33,.35-.38,.69-.77,1.05-1.15,1.15-1.2,2.31-2.38,3.32-3.69,1.01-1.31,2.08-2.57,2.71-4.12,.14-.36,.59-.36,.73-.69,.18,.18,.36,.35,.52,.54l.22,.41c.48,1.51,.9,3.05,1.54,4.5l.14,.44c.31,1.09,.53,2.2,.93,3.26,0,.23,.8,1.14,1.07,1.45,.21,.23,.29,.4,.12,.73-.16,.32-.34,.73-.19,1.1,.2,.5,.32,1.09,.27,1.51-.12,.96,.02,1.91-.14,2.85-.09,.47,.1,.68,.56,.83,.71,.24,1.43,.07,2.13,.12,.4,.03,.78,.05,1.13-.32,.27-.28,.72-.23,1.06,0l.4,.17c1.51,0,3.03,.14,4.51-.33,.37-.12,.74-.26,.95-.6,.22-.34-.16-.56-.26-.83-.39-1.09-.67-1.24-1.79-1.08-.25,.03-.51,.01-.77,.02-.17,0-.31-.02-.32-.24-.01-.47-.3-.87-.4-1.32-.23-1.05-.47-2.1-1.41-2.83-.46-.35-.56-.95-.57-1.55-.03-2.24-.55-4.42-.88-6.62-.06-.39-.27-.77-.06-1.2,.36-.75,.24-1.51-.15-2.24-.21-.38-.45-.76-.59-1.17-.18-.49-.5-.86-.91-1.11-.28-.18-.39-.46-.59-.65-.67-.6-.63-1.56-1.23-2.24-.61-.69-.89-1.72-1.19-2.63-.22-.67-.4-1.42-.08-2.11,.34-.76,.44-1.57,.66-2.36,.29-1.03,.25-1.04,1.26-.67,.27,.1,.52,.23,.79,.3,.32,.08,.63,.24,.98,.11,.41-.16,.81-.08,1.19,.13,.39,.2,.69,.1,1.04-.19,.55-.46,.74-1.15,1.15-1.7,.32-.43-.07-1.29-.61-1.36-.86-.12-1.73-.27-2.58,.09-.72,.31-1.44,.39-2.09-.18-.16-.14-.35-.29-.27-.52,.29-.78,.08-1.59,.19-2.38,.11-.71-.01-1.38-.23-2.05-.44-1.34-.98-2.67-1.03-4.11-.03-.94-.22-1.8-.95-2.52,.61,0,1.11,.02,1.62,.16,.79,.22,1.42-.09,1.46-.8,.03-.51,.48-1.03,.03-1.55l.03-.21c.57-.14,.45-.88,.98-1.11,.35-.15,.41-.57,0-.89-.38-.3-.46-.72-.32-1.2,.05-.17,.05-.36,.09-.53,.24-1.1-.03-2.18-.2-3.24-.05-.32-.23-.81-.51-1.22-.19-.28-1.34-.97-1.89-1.18-.57-.22-1.27-.43-1.96-.49-1.27-.12-2.53,.32-3.15,.47-1.48,.35-2.2,1.57-2.76,2.82-.62,1.39-.52,2.9-.24,4.37,.05,.25,.64,1.08,.76,1.3,.26,.5,.49,1.02,.89,1.44,.33,.34,.35,.75,.05,1.11-.45,.53-.38,.75-1.13,.81-.25,.02-.38,0-.52-.22-.59-.95-1.08-1.19-1.6-1.72-.28-.29-.68-.41-1.06-.42-.26-.01-.97,.11-1.12,.5-.26,.73,.02,1.61,.66,2.09,.23,.17,.46,.33,.68,.51,.53,.48,.58,.9,.17,1.5-.23,.34-.59,.62-.72,.99-.47,1.3-1.6,2.16-2.18,3.41-.43,.93-.76,.44-.78,1.47-.02,1.22,.07,2.45-.06,3.67-.03,.26-.05,.44-.37,.55-.9,.34-1.54,1.09-2.33,1.62-.28,.19-.44,.42-.25,.84,.14,.3,.09,.68-.05,1.05-.34,.89-.34,1.86-.11,2.75,.2,.8,.47,1.59,.72,2.38,.22,.71,.37,1.45,.75,2.1,.24,.42,.44,.86,1.03,.92,.29,.03,.45-.41,.56-.11,.16,.43,1.06,.15,1.38,.52,1,1.14,.24,4.49-1.01,5.4l-.17,.15c-1.08,.6-2,1.38-2.86,2.26-4.32-7.25-6.81-15.74-6.81-24.82,0-13.32,5.34-25.36,13.98-34.09,8.64-8.73,20.57-14.12,33.75-14.12,8.57,0,16.61,2.29,23.56,6.28-1.04,1.57-3.26,5.02-4.58,8.74-.25,.62-.43,1.13-.47,1.48-.47,1.33-1.75,9.6-1.94,12.73-.57,.93-.65,2.13-.56,3.32-.39,2.28-.72,4.56-.63,7.27,0,0,.79,1.02,2.15,.73,.21,1.38-.29,2.52,.43,3.1,.71,.58,2.78-.38,4.29-.38,.07,.91-.43,2.34-.21,4.01v.2s.43,5.69,.43,5.69c.75,2.65,.75,8.79,.83,9.05-1.07,1.73-2.08,13.58-2.12,16.94l-.04,.1c-.85,1.81,1.71,.8,2.36,1.12,.65,.32-.63,1.37-2.95,3.87-2.32,2.5-1.92,3.73,1.55,3.94,3.46,.21,3.39-3.06,5.24-3.33,1.85-.26,2.48-.64,2.18-1.79-.3-1.16,.11-4.53,.32-5.15,.21-.62,2.62-.93,4.47,.73,.08,1.22,.34,1.84,.62,2.41-.38,.41-.76,.83-1.16,1.23-8.64,8.73-20.57,14.12-33.75,14.12ZM16.87,66.33c-.38-.44-.84-.76-1.23-1.19-.09-.1-.27-.23-.2-.41,.07-.17,.28-.21,.42-.18,.81,.53,1.39,.89,1.67,1.53,.09,.21-.09,.29-.25,.4-.25,.15-.29-.01-.41-.15Zm77.29,26.09c.15-14.01,1.55-30.72,1.73-33.97,1.46,4.63,2.26,9.55,2.26,14.67,0,6.87-1.43,13.39-3.99,19.3Z"/>
    <polygon class="cls-1" points="89.74 21.3 89.74 21.3 89.74 21.3 89.74 21.3"/>
  </g>
</svg>